{"title":"Street.Genius.S02E01.Shattering.Conclusions.1080p.WEB-DL.x264-or","uid":11793644,"size":948161496,"categoryP":"video","categoryS":"hd___tv_shows","magnet":"?xt=urn:btih:c4a981a45d288cfc92be36dc73032955fb331888&amp;dn=Street.Genius.S02E01.Shattering.Conclusions.1080p.WEB-DL.x264-or&amp;tr=udp%3A%2F%2Ftracker.openbittorrent.com%3A80&amp;tr=udp%3A%2F%2Fopen.demonii.com%3A1337&amp;tr=udp%3A%2F%2Ftracker.coppersurfer.tk%3A6969&amp;tr=udp%3A%2F%2Fexodus.desync.com%3A6969","seeders":0,"leechers":1,"uploader":"orangebirds","files":1,"time":1428048673,"description":"Street.Genius.S02E01.Shattering.Conclusions.1080p.WEB-DL.x264-orangebirds\n\nSource: iTunes\nAudio in AC3\nCC available\n\nGeneral\nUnique ID                                : 244026727528370438294935136828453204894 (0xB795D692D1843D8090CE946BC0EEB39E)\nComplete name                            : Street.Genius.S02E01.Shattering.Conclusions.1080p.WEB-DL.x264-orangebirds.mkv\nFormat                                   : Matroska\nFormat version                           : Version 2\nFile size                                : 904 MiB\nDuration                                 : 22mn 27s\nOverall bit rate                         : 5 631 Kbps\nEncoded date                             : UTC 2015-04-03 01:31:58\nWriting application                      : mkvmerge v7.8.0 ('River Man') 32bit built on Mar 27 2015 16:18:02\nWriting library                          : libebml v1.3.1 + libmatroska v1.4.2\nDURATION                                 : 00:20:49.946000000\nNUMBER_OF_FRAMES                         : 581\nNUMBER_OF_BYTES                          : 23776\n_STATISTICS_WRITING_APP                  : mkvmerge v7.8.0 ('River Man') 32bit built on Mar 27 2015 16:18:02\n_STATISTICS_WRITING_DATE_UTC             : 2015-04-03 01:31:58\n_STATISTICS_TAGS                         : BPS DURATION NUMBER_OF_FRAMES NUMBER_OF_BYTES\n\nVideo\nID                                       : 1\nFormat                                   : AVC\nFormat/Info                              : Advanced Video Codec\nFormat profile                           : &lt;a class=&quot;__cf_email__&quot; href=&quot;/cdn-cgi/l/email-protection&quot; data-cfemail=&quot;420a2b252a020e766c73&quot;&gt;[email&amp;#160;protected]&lt;/a&gt;&lt;script cf-hash='f9e31' type=&quot;text/javascript&quot;&gt;\n/* &lt;![CDATA[ */!function(){try{var t=&quot;currentScript&quot;in document?document.currentScript:function(){for(var t=document.getElementsByTagName(&quot;script&quot;),e=t.length;e--;)if(t[e].getAttribute(&quot;cf-hash&quot;))return t[e]}();if(t&amp;&amp;t.previousSibling){var e,r,n,i,c=t.previousSibling,a=c.getAttribute(&quot;data-cfemail&quot;);if(a){for(e=&quot;&quot;,r=parseInt(a.substr(0,2),16),n=2;a.length-n;n+=2)i=parseInt(a.substr(n,2),16)^r,e+=String.fromCharCode(i);e=document.createTextNode(e),c.parentNode.replaceChild(e,c)}}}catch(u){}}();/* ]]&gt; */&lt;/script&gt;\nFormat settings, CABAC                   : Yes\nFormat settings, ReFrames                : 4 frames\nCodec ID                                 : V_MPEG4/ISO/AVC\nDuration                                 : 22mn 27s\nBit rate                                 : 5 135 Kbps\nWidth                                    : 1 920 pixels\nHeight                                   : 1 080 pixels\nDisplay aspect ratio                     : 16:9\nFrame rate mode                          : Constant\nFrame rate                               : 29.970 fps\nColor space                              : YUV\nChroma subsampling                       : 4:2:0\nBit depth                                : 8 bits\nScan type                                : Progressive\nBits/(Pixel*Frame)                       : 0.083\nStream size                              : 825 MiB (91%)\nWriting library                          : x264 core 146 r2538 121396c\nEncoding settings                        : cabac=1 / ref=4 / deblock=1:0:0 / analyse=0x3:0x133 / me=umh / subme=10 / psy=1 / psy_rd=1.00:0.00 / mixed_ref=1 / me_range=24 / chroma_me=1 / trellis=2 / 8x8dct=1 / cqm=0 / deadzone=21,11 / fast_pskip=1 / chroma_qp_offset=-2 / threads=6 / lookahead_threads=1 / sliced_threads=0 / nr=0 / decimate=1 / interlaced=0 / bluray_compat=0 / constrained_intra=0 / bframes=8 / b_pyramid=2 / b_adapt=2 / b_bias=0 / direct=3 / weightb=1 / open_gop=0 / weightp=2 / keyint=300 / keyint_min=29 / scenecut=40 / intra_refresh=0 / rc_lookahead=60 / rc=crf / mbtree=1 / crf=21.0 / qcomp=0.60 / qpmin=0 / qpmax=69 / qpstep=4 / vbv_maxrate=62500 / vbv_bufsize=78125 / crf_max=0.0 / nal_hrd=none / filler=0 / ip_ratio=1.40 / aq=1:1.00\nDefault                                  : Yes\nForced                                   : No\n\nAudio\nID                                       : 2\nFormat                                   : AC-3\nFormat/Info                              : Audio Coding 3\nMode extension                           : CM (complete main)\nFormat settings, Endianness              : Big\nCodec ID                                 : A_AC3\nDuration                                 : 22mn 27s\nBit rate mode                            : Constant\nBit rate                                 : 384 Kbps\nChannel(s)                               : 6 channels\nChannel positions                        : Front: L C R, Side: L R, LFE\nSampling rate                            : 48.0 KHz\nBit depth                                : 16 bits\nCompression mode                         : Lossy\nStream size                              : 61.7 MiB (7%)\nLanguage                                 : English\nDefault                                  : Yes\nForced                                   : No\n\nText\nID                                       : 3\nFormat                                   : UTF-8\nCodec ID                                 : S_TEXT/UTF8\nCodec ID/Info                            : UTF-8 Plain Text\nDefault                                  : Yes\nForced                                   : No","torrent":{"xt":"urn:btih:c4a981a45d288cfc92be36dc73032955fb331888","amp;dn":"Street.Genius.S02E01.Shattering.Conclusions.1080p.WEB-DL.x264-or","amp;tr":["udp%3A%2F%2Ftracker.openbittorrent.com%3A80","udp%3A%2F%2Fopen.demonii.com%3A1337","udp%3A%2F%2Ftracker.coppersurfer.tk%3A6969","udp%3A%2F%2Fexodus.desync.com%3A6969"],"infoHash":"c4a981a45d288cfc92be36dc73032955fb331888","infoHashBuffer":{"type":"Buffer","data":[196,169,129,164,93,40,140,252,146,190,54,220,115,3,41,85,251,51,24,136]},"announce":[],"urlList":[]}}